# xmcd
#
# Track frame offsets: 
#        150
#        17050
#        39862
#        57275
#        81912
#        100312
#        117900
#        135325
#        156000
#        180875
#        200587
#        218637
#        244387
#
# Disc length: 3465 seconds
#
# Revision: 0
# Processed by: cddbd v1.5.2PL0 Copyright (c) Steve Scherf et al.
# Submitted via: ExactAudioCopy v0.95b3
#
DISCID=a40d870d
DTITLE=Tomcat Courtney - Little John
DYEAR=1992
DGENRE=Blues
TTITLE0=Shake It Up Baby
TTITLE1=Freebasing Again
TTITLE2=Blues Singing Woman
TTITLE3=The News
TTITLE4=Don't Do It
TTITLE5=Mojo In My Bread
TTITLE6=The Girl Next Door
TTITLE7=The Highway and the Freeway
TTITLE8=Wolf That Howls
TTITLE9=Little John
TTITLE10=Telephone Me
TTITLE11=I Love That Woman
TTITLE12=Too Many Drivers
EXTD=
EXTT0=
EXTT1=
EXTT2=
EXTT3=
EXTT4=
EXTT5=
EXTT6=
EXTT7=
EXTT8=
EXTT9=
EXTT10=
EXTT11=
EXTT12=
PLAYORDER=
